/* XPM */
static char * icon_16_xpm[] = {
"16 16 26 1",
" 	c None",
".	c #FFFFFF",
"+	c #353535",
"@	c #8B8B8B",
"#	c #FCFCFC",
"$	c #F6F6F6",
"%	c #737373",
"&	c #393939",
"*	c #D5D5D5",
"=	c #C9C9C9",
"-	c #313131",
";	c #838383",
">	c #FBFBFB",
",	c #F2F2F2",
"'	c #262626",
")	c #616161",
"!	c #323232",
"~	c #848484",
"{	c #747474",
"]	c #3B3B3B",
"^	c #373737",
"/	c #8D8D8D",
"(	c #FDFDFD",
"_	c #242424",
":	c #000000",
"<	c #272727",
"................",
"................",
"................",
".+@#............",
".$%&*...........",
"...=-;>.........",
"....,').........",
"...=!~>.........",
".${]*...........",
".^/(............",
"................",
"................",
"......_::::::<..",
"................",
"................",
"................"};
